<svg width="14" height="12" viewBox="0 0 14 12" fill="none" xmlns="http://www.w3.org/2000/svg">
<path d="M12.4044 3.75614C12.3885 3.60716 12.3698 3.48777 12.3544 3.40268L13.6107 1.51821C13.6897 1.39973 13.6847 1.24415 13.5983 1.13098C13.5119 1.01781 13.3631 0.972054 13.228 1.01709L11.4809 1.59946C11.3885 1.46175 11.2516 1.28011 11.0691 1.09761C10.6994 0.727945 10.1196 0.333313 9.33339 0.333313C8.51835 0.333313 7.91515 0.561433 7.48446 0.935945C7.05819 1.30661 6.83335 1.79244 6.71835 2.25247C6.60349 2.71191 6.59326 3.16405 6.60985 3.49579C6.61469 3.59254 6.62186 3.68009 6.62965 3.75587C5.79289 3.93381 4.91732 3.66123 4.0596 3.15221C3.1138 2.59092 2.2468 1.77532 1.5691 1.09761C1.4751 1.00362 1.33425 0.974454 1.21066 1.0234C1.08707 1.07234 1.00438 1.19004 1.00022 1.3229C0.91529 4.04078 1.47563 7.33048 4.0075 8.99867C2.94257 9.57477 1.89848 9.84342 0.625382 10.0026C0.479627 10.0208 0.362979 10.1323 0.338179 10.277C0.313379 10.4218 0.386275 10.5658 0.517656 10.6315C3.95679 12.351 8.41333 12.2267 10.9334 8.86665C11.978 7.47377 12.3281 6.07727 12.4156 5.02766C12.4593 4.50344 12.4375 4.06537 12.4044 3.75614Z" fill="white"/>
</svg>
