<svg width="36" height="36" viewBox="0 0 36 36" fill="none" xmlns="http://www.w3.org/2000/svg">
<path fill-rule="evenodd" clip-rule="evenodd" d="M13.5 31.5C13.5 30.6716 14.1716 30 15 30H21C21.8284 30 22.5 30.6716 22.5 31.5C22.5 32.3284 21.8284 33 21 33H15C14.1716 33 13.5 32.3284 13.5 31.5Z" fill="#FF8B49"/>
<path fill-rule="evenodd" clip-rule="evenodd" d="M23.25 23.4605C23.25 22.925 23.5404 22.437 23.9803 22.1317C26.7116 20.2358 28.5 17.0767 28.5 13.5C28.5 7.70101 23.799 3 18 3C12.201 3 7.5 7.70101 7.5 13.5C7.5 17.0767 9.28837 20.2358 12.0197 22.1317C12.4596 22.437 12.75 22.925 12.75 23.4605V24C12.75 26.0711 14.4289 27.75 16.5 27.75H19.5C21.5711 27.75 23.25 26.0711 23.25 24V23.4605Z" fill="#FF8B49"/>
</svg>
