<svg width="36" height="36" viewBox="0 0 36 36" fill="none" xmlns="http://www.w3.org/2000/svg">
<path d="M24.3107 4.18944C23.7249 3.60365 22.7751 3.60364 22.1893 4.18943C21.6036 4.77521 21.6035 5.72496 22.1893 6.31075L23.3729 7.49432H15C9.20101 7.49432 4.5 12.1953 4.5 17.9943V19.4943C4.5 20.3228 5.17157 20.9943 6 20.9943C6.82843 20.9943 7.5 20.3228 7.5 19.4943V17.9943C7.5 13.8522 10.8579 10.4943 15 10.4943H23.38L22.1893 11.685C21.6035 12.2708 21.6036 13.2205 22.1893 13.8063C22.7751 14.3921 23.7249 14.3921 24.3107 13.8063L27.5281 10.5888C28.4067 9.71015 28.4067 8.28554 27.5281 7.40687L24.3107 4.18944Z" fill="#FF8B49"/>
<path d="M20.9976 28.5C26.7966 28.5 31.4976 23.799 31.4976 18V16.5C31.4976 15.6716 30.826 15 29.9976 15C29.1692 15 28.4976 15.6716 28.4976 16.5V18C28.4976 22.1421 25.1397 25.5 20.9976 25.5H12.6176L13.8083 24.3093C14.3941 23.7235 14.394 22.7737 13.8083 22.1879C13.2225 21.6022 12.2727 21.6022 11.6869 22.188L8.46954 25.4054C7.59088 26.2841 7.59088 27.7087 8.46955 28.5874L11.6869 31.8048C12.2727 32.3906 13.2225 32.3906 13.8083 31.8048C14.394 31.219 14.3941 30.2693 13.8083 29.6835L12.6248 28.5H20.9976Z" fill="#FF8B49"/>
</svg>
