<svg width="30" height="22" viewBox="0 0 30 22" fill="none" xmlns="http://www.w3.org/2000/svg">
<path fill-rule="evenodd" clip-rule="evenodd" d="M4.5 15.5H6V17C6 19.4853 8.01472 21.5 10.5 21.5H25.5C27.9853 21.5 30 19.4853 30 17V11C30 8.51472 27.9853 6.5 25.5 6.5H24V5C24 2.51472 21.9853 0.5 19.5 0.5H4.5C2.01472 0.5 0 2.51472 0 5V11C0 13.4853 2.01472 15.5 4.5 15.5ZM19.5 3.5H4.5C3.67157 3.5 3 4.17157 3 5V11C3 11.8284 3.67157 12.5 4.5 12.5H6V11C6 8.51472 8.01472 6.5 10.5 6.5H21V5C21 4.17157 20.3284 3.5 19.5 3.5ZM18 17C19.6569 17 21 15.6569 21 14C21 12.3431 19.6569 11 18 11C16.3431 11 15 12.3431 15 14C15 15.6569 16.3431 17 18 17ZM12 14C12 14.8284 11.3284 15.5 10.5 15.5C9.67157 15.5 9 14.8284 9 14C9 13.1716 9.67157 12.5 10.5 12.5C11.3284 12.5 12 13.1716 12 14ZM25.5 15.5C26.3284 15.5 27 14.8284 27 14C27 13.1716 26.3284 12.5 25.5 12.5C24.6716 12.5 24 13.1716 24 14C24 14.8284 24.6716 15.5 25.5 15.5Z" fill="#FF8B49"/>
</svg>
