<svg width="36" height="36" viewBox="0 0 36 36" fill="none" xmlns="http://www.w3.org/2000/svg">
<path d="M15.4118 20H6.58824C6.26353 20 6 19.7243 6 19.3846V4.61538C6 4.27569 6.26353 4 6.58824 4H15.4118C15.7365 4 16 4.27569 16 4.61538V19.3846C16 19.7243 15.7365 20 15.4118 20Z" fill="#FF8B49"/>
<path d="M15.4118 32H6.58824C6.26353 32 6 31.712 6 31.3571V23.6429C6 23.288 6.26353 23 6.58824 23H15.4118C15.7365 23 16 23.288 16 23.6429V31.3571C16 31.712 15.7365 32 15.4118 32Z" fill="#FF8B49"/>
<path d="M29.4118 13H20.5882C20.2635 13 20 12.712 20 12.3571V4.64286C20 4.288 20.2635 4 20.5882 4H29.4118C29.7365 4 30 4.288 30 4.64286V12.3571C30 12.712 29.7365 13 29.4118 13Z" fill="#FF8B49"/>
<path d="M29.4118 32H20.5882C20.2635 32 20 31.7243 20 31.3846V16.6154C20 16.2757 20.2635 16 20.5882 16H29.4118C29.7365 16 30 16.2757 30 16.6154V31.3846C30 31.7243 29.7365 32 29.4118 32Z" fill="#FF8B49"/>
</svg>
