<svg width="28" height="30" viewBox="0 0 28 30" fill="none" xmlns="http://www.w3.org/2000/svg">
<path fill-rule="evenodd" clip-rule="evenodd" d="M5 0C2.51472 0 0.5 2.01472 0.5 4.5V25.5C0.5 27.9853 2.51472 30 5 30H23C25.4853 30 27.5 27.9853 27.5 25.5V8.61396C27.5 7.42049 27.0259 6.2759 26.182 5.43198L22.068 1.31802C21.2241 0.474106 20.0795 0 18.886 0H5ZM18.5 3.31065V5.99999C18.5 7.65685 19.8431 9 21.5 9H24.1893C24.8575 9 25.1921 8.19214 24.7197 7.71967L19.7803 2.78032C19.3079 2.30785 18.5 2.64248 18.5 3.31065Z" fill="#FF8B49"/>
</svg>
