<svg width="100" height="100" viewBox="0 0 100 100" fill="none" xmlns="http://www.w3.org/2000/svg">
<path d="M29.6875 28.125H32.8125V31.25H29.6875V28.125Z" fill="#FF8B49"/>
<path d="M20.3125 28.125H23.4375V31.25H20.3125V28.125Z" fill="#FF8B49"/>
<path d="M43.5938 49.2031L32.8125 44.3125V42.0625C34.2444 41.2286 35.4977 40.1203 36.5005 38.8011C37.5032 37.4819 38.2358 35.9778 38.6562 34.375H42.1875C43.0155 34.3725 43.809 34.0425 44.3945 33.457C44.98 32.8715 45.31 32.078 45.3125 31.25V25C45.31 24.172 44.98 23.3785 44.3945 22.793C43.809 22.2075 43.0155 21.8775 42.1875 21.875V18.75C42.1875 14.606 40.5413 10.6317 37.611 7.70146C34.6808 4.7712 30.7065 3.125 26.5625 3.125C22.4185 3.125 18.4442 4.7712 15.514 7.70146C12.5837 10.6317 10.9375 14.606 10.9375 18.75V21.875C10.1095 21.8775 9.31604 22.2075 8.73052 22.793C8.14501 23.3785 7.81497 24.172 7.8125 25V31.25C7.81497 32.078 8.14501 32.8715 8.73052 33.457C9.31604 34.0425 10.1095 34.3725 10.9375 34.375H14.4688C14.8892 35.9778 15.6218 37.4819 16.6245 38.8011C17.6273 40.1203 18.8806 41.2286 20.3125 42.0625V44.3125L9.53125 49.2031C7.62239 50.0788 6.00447 51.4831 4.8691 53.2499C3.73372 55.0166 3.12846 57.0718 3.125 59.1719V65.625C3.125 66.0394 3.28962 66.4368 3.58265 66.7299C3.87567 67.0229 4.2731 67.1875 4.6875 67.1875H48.4375C48.8519 67.1875 49.2493 67.0229 49.5424 66.7299C49.8354 66.4368 50 66.0394 50 65.625V59.1719C49.9965 57.0718 49.3913 55.0166 48.2559 53.2499C47.1205 51.4831 45.5026 50.0788 43.5938 49.2031ZM35.9375 23.25C35.5674 23.0741 35.2812 22.7599 35.1406 22.375L34.2969 19.8125C34.2198 19.5785 34.0871 19.3668 33.9102 19.1953C33.7333 19.0239 33.5175 18.8979 33.2812 18.8281C33.0451 18.7528 32.7944 18.7348 32.5498 18.7756C32.3053 18.8163 32.074 18.9147 31.875 19.0625L28.9531 21.25C27.0577 22.6657 24.7564 23.4328 22.3906 23.4375H17.1875V21.875C17.1875 19.3886 18.1752 17.004 19.9334 15.2459C21.6915 13.4877 24.0761 12.5 26.5625 12.5C29.0489 12.5 31.4335 13.4877 33.1916 15.2459C34.9498 17.004 35.9375 19.3886 35.9375 21.875V23.25ZM42.1875 31.25H39.0625V25H42.1875V31.25ZM14.0625 31.25H10.9375V25H14.0625V31.25ZM14.0625 21.875V18.75C14.0625 15.4348 15.3795 12.2554 17.7237 9.91117C20.0679 7.56696 23.2473 6.25 26.5625 6.25C29.8777 6.25 33.0571 7.56696 35.4013 9.91117C37.7455 12.2554 39.0625 15.4348 39.0625 18.75V21.875C39.0625 18.5598 37.7455 15.3804 35.4013 13.0362C33.0571 10.692 29.8777 9.375 26.5625 9.375C23.2473 9.375 20.0679 10.692 17.7237 13.0362C15.3795 15.3804 14.0625 18.5598 14.0625 21.875ZM17.1875 31.25V26.5625H22.3906C25.4327 26.5589 28.3923 25.5724 30.8281 23.75L32.0156 22.8594L32.1875 23.3594C32.4589 24.1797 32.9536 24.9081 33.616 25.4628C34.2784 26.0176 35.0823 26.3767 35.9375 26.5V31.25C35.9375 33.7364 34.9498 36.121 33.1916 37.8791C31.4335 39.6373 29.0489 40.625 26.5625 40.625C24.0761 40.625 21.6915 39.6373 19.9334 37.8791C18.1752 36.121 17.1875 33.7364 17.1875 31.25ZM29.6875 43.3438V45.3125C29.6875 46.1413 29.3583 46.9362 28.7722 47.5222C28.1862 48.1083 27.3913 48.4375 26.5625 48.4375C25.7337 48.4375 24.9388 48.1083 24.3528 47.5222C23.7667 46.9362 23.4375 46.1413 23.4375 45.3125V43.3438C25.4856 43.8854 27.6394 43.8854 29.6875 43.3438ZM46.875 64.0625H40.625V57.8125H37.5V64.0625H15.625V57.8125H12.5V64.0625H6.25V59.1719C6.25089 57.6706 6.68277 56.2011 7.49432 54.9381C8.30587 53.6751 9.46298 52.6716 10.8281 52.0469L20.75 47.5469C21.1963 48.7274 21.9916 49.7441 23.0299 50.4615C24.0682 51.179 25.3004 51.5633 26.5625 51.5633C27.8246 51.5633 29.0568 51.179 30.0951 50.4615C31.1334 49.7441 31.9287 48.7274 32.375 47.5469L42.2969 52.0469C43.662 52.6716 44.8191 53.6751 45.6307 54.9381C46.4422 56.2011 46.8741 57.6706 46.875 59.1719V64.0625Z" fill="#FF8B49"/>
<path d="M76.5625 57.8125H79.6875V60.9375H76.5625V57.8125Z" fill="#FF8B49"/>
<path d="M67.1875 57.8125H70.3125V60.9375H67.1875V57.8125Z" fill="#FF8B49"/>
<path d="M90.4688 78.8906L79.6875 74V71.75C81.1194 70.9161 82.3727 69.8078 83.3755 68.4886C84.3782 67.1694 85.1108 65.6653 85.5313 64.0625H89.0625C89.8905 64.06 90.684 63.73 91.2695 63.1445C91.855 62.559 92.185 61.7655 92.1875 60.9375V54.6875C92.185 53.8595 91.855 53.066 91.2695 52.4805C90.684 51.895 89.8905 51.565 89.0625 51.5625V48.4375C89.0625 44.2935 87.4163 40.3192 84.486 37.389C81.5558 34.4587 77.5815 32.8125 73.4375 32.8125C69.2935 32.8125 65.3192 34.4587 62.389 37.389C59.4587 40.3192 57.8125 44.2935 57.8125 48.4375V51.5625C56.9845 51.565 56.191 51.895 55.6055 52.4805C55.02 53.066 54.69 53.8595 54.6875 54.6875V60.9375C54.69 61.7655 55.02 62.559 55.6055 63.1445C56.191 63.73 56.9845 64.06 57.8125 64.0625H61.3437C61.7642 65.6653 62.4968 67.1694 63.4995 68.4886C64.5023 69.8078 65.7556 70.9161 67.1875 71.75V74L56.4062 78.8906C54.4974 79.7663 52.8795 81.1706 51.7441 82.9374C50.6087 84.7041 50.0035 86.7593 50 88.8594V95.3125C50 95.7269 50.1646 96.1243 50.4576 96.4174C50.7507 96.7104 51.1481 96.875 51.5625 96.875H95.3125C95.7269 96.875 96.1243 96.7104 96.4174 96.4174C96.7104 96.1243 96.875 95.7269 96.875 95.3125V88.8594C96.8715 86.7593 96.2663 84.7041 95.1309 82.9374C93.9955 81.1706 92.3776 79.7663 90.4688 78.8906ZM82.8125 52.9375C82.4424 52.7616 82.1562 52.4474 82.0156 52.0625L81.1719 49.5C81.0948 49.266 80.9621 49.0542 80.7852 48.8828C80.6083 48.7114 80.3925 48.5854 80.1562 48.5156C79.9201 48.4403 79.6694 48.4223 79.4248 48.4631C79.1803 48.5038 78.949 48.6022 78.75 48.75L75.8281 50.9375C73.9327 52.3532 71.6314 53.1203 69.2656 53.125H64.0625V51.5625C64.0625 49.0761 65.0502 46.6915 66.8084 44.9334C68.5665 43.1752 70.9511 42.1875 73.4375 42.1875C75.9239 42.1875 78.3085 43.1752 80.0666 44.9334C81.8248 46.6915 82.8125 49.0761 82.8125 51.5625V52.9375ZM89.0625 60.9375H85.9375V54.6875H89.0625V60.9375ZM60.9375 60.9375H57.8125V54.6875H60.9375V60.9375ZM60.9375 51.5625V48.4375C60.9375 45.1223 62.2545 41.9429 64.5987 39.5987C66.9429 37.2545 70.1223 35.9375 73.4375 35.9375C76.7527 35.9375 79.9321 37.2545 82.2763 39.5987C84.6205 41.9429 85.9375 45.1223 85.9375 48.4375V51.5625C85.9375 48.2473 84.6205 45.0679 82.2763 42.7237C79.9321 40.3795 76.7527 39.0625 73.4375 39.0625C70.1223 39.0625 66.9429 40.3795 64.5987 42.7237C62.2545 45.0679 60.9375 48.2473 60.9375 51.5625ZM64.0625 60.9375V56.25H69.2656C72.3078 56.2464 75.2673 55.2599 77.7031 53.4375L78.8906 52.5469L79.0625 53.0469C79.3339 53.8672 79.8286 54.5956 80.491 55.1503C81.1534 55.7051 81.9573 56.0642 82.8125 56.1875V60.9375C82.8125 63.4239 81.8248 65.8085 80.0666 67.5666C78.3085 69.3248 75.9239 70.3125 73.4375 70.3125C70.9511 70.3125 68.5665 69.3248 66.8084 67.5666C65.0502 65.8085 64.0625 63.4239 64.0625 60.9375ZM76.5625 73.0313V75C76.5625 75.8288 76.2333 76.6237 75.6472 77.2097C75.0612 77.7958 74.2663 78.125 73.4375 78.125C72.6087 78.125 71.8138 77.7958 71.2278 77.2097C70.6417 76.6237 70.3125 75.8288 70.3125 75V73.0313C72.3606 73.5729 74.5144 73.5729 76.5625 73.0313ZM93.75 93.75H87.5V87.5H84.375V93.75H62.5V87.5H59.375V93.75H53.125V88.8594C53.1259 87.3581 53.5578 85.8886 54.3693 84.6256C55.1809 83.3626 56.338 82.3591 57.7031 81.7344L67.625 77.2344C68.0713 78.4149 68.8666 79.4316 69.9049 80.149C70.9432 80.8665 72.1754 81.2508 73.4375 81.2508C74.6996 81.2508 75.9318 80.8665 76.9701 80.149C78.0084 79.4316 78.8037 78.4149 79.25 77.2344L89.1719 81.7344C90.537 82.3591 91.6941 83.3626 92.5057 84.6256C93.3172 85.8886 93.7491 87.3581 93.75 88.8594V93.75Z" fill="#FF8B49"/>
<path d="M35.9375 70.3125H17.1875C13.8737 70.317 10.6969 71.6355 8.35369 73.9787C6.01047 76.3219 4.69205 79.4987 4.6875 82.8125V90.625C4.69121 91.8671 5.18626 93.0572 6.06453 93.9355C6.94281 94.8137 8.13294 95.3088 9.375 95.3125H14.0625C14.4145 95.3081 14.7552 95.1872 15.0312 94.9687L22.0938 89.4063C22.3698 89.1878 22.7105 89.0669 23.0625 89.0625H30.0625C30.4117 89.0686 30.7502 89.1833 31.0312 89.3906L38.0938 94.9687C38.3698 95.1872 38.7105 95.3081 39.0625 95.3125H43.75C44.9921 95.3088 46.1822 94.8137 47.0605 93.9355C47.9387 93.0572 48.4338 91.8671 48.4375 90.625V82.8125C48.433 79.4987 47.1145 76.3219 44.7713 73.9787C42.4281 71.6355 39.2513 70.317 35.9375 70.3125ZM45.3125 90.625C45.3125 91.0394 45.1479 91.4368 44.8549 91.7299C44.5618 92.0229 44.1644 92.1875 43.75 92.1875H39.6094L32.9688 86.9531C32.1416 86.2977 31.1178 85.9399 30.0625 85.9375H23.0625C22.0072 85.9399 20.9834 86.2977 20.1562 86.9531L13.5156 92.1875H9.375C8.9606 92.1875 8.56317 92.0229 8.27015 91.7299C7.97712 91.4368 7.8125 91.0394 7.8125 90.625V82.8125C7.8125 80.3261 8.80022 77.9415 10.5584 76.1834C12.3165 74.4252 14.7011 73.4375 17.1875 73.4375H35.9375C38.4239 73.4375 40.8085 74.4252 42.5666 76.1834C44.3248 77.9415 45.3125 80.3261 45.3125 82.8125V90.625Z" fill="#FF8B49"/>
<path d="M17.1875 76.5625H14.0625V79.6875H10.9375V82.8125H14.0625V85.9375H17.1875V82.8125H20.3125V79.6875H17.1875V76.5625Z" fill="#FF8B49"/>
<path d="M35.9375 76.5625H39.0625V79.6875H35.9375V76.5625Z" fill="#FF8B49"/>
<path d="M39.0625 79.6875H42.1875V82.8125H39.0625V79.6875Z" fill="#FF8B49"/>
<path d="M35.9375 82.8125H39.0625V85.9375H35.9375V82.8125Z" fill="#FF8B49"/>
<path d="M32.8125 79.6875H35.9375V82.8125H32.8125V79.6875Z" fill="#FF8B49"/>
<path d="M21.875 76.5625H25V79.6875H21.875V76.5625Z" fill="#FF8B49"/>
<path d="M28.125 76.5625H31.25V79.6875H28.125V76.5625Z" fill="#FF8B49"/>
<path d="M82.8125 7.8125H64.0625C60.7487 7.81705 57.5719 9.13547 55.2287 11.4787C52.8855 13.8219 51.567 16.9987 51.5625 20.3125V28.125C51.5662 29.3671 52.0613 30.5572 52.9395 31.4355C53.8178 32.3137 55.0079 32.8088 56.25 32.8125H60.9375C61.2895 32.8081 61.6302 32.6872 61.9062 32.4688L68.9688 26.9062C69.2448 26.6878 69.5855 26.5669 69.9375 26.5625H76.9375C77.2867 26.5686 77.6252 26.6833 77.9062 26.8906L84.9688 32.4688C85.2448 32.6872 85.5855 32.8081 85.9375 32.8125H90.625C91.8671 32.8088 93.0572 32.3137 93.9355 31.4355C94.8137 30.5572 95.3088 29.3671 95.3125 28.125V20.3125C95.308 16.9987 93.9895 13.8219 91.6463 11.4787C89.3031 9.13547 86.1263 7.81705 82.8125 7.8125ZM92.1875 28.125C92.1875 28.5394 92.0229 28.9368 91.7299 29.2299C91.4368 29.5229 91.0394 29.6875 90.625 29.6875H86.4844L79.8437 24.4531C79.0166 23.7977 77.9928 23.4399 76.9375 23.4375H69.9375C68.8822 23.4399 67.8584 23.7977 67.0313 24.4531L60.3906 29.6875H56.25C55.8356 29.6875 55.4382 29.5229 55.1451 29.2299C54.8521 28.9368 54.6875 28.5394 54.6875 28.125V20.3125C54.6875 17.8261 55.6752 15.4415 57.4334 13.6834C59.1915 11.9252 61.5761 10.9375 64.0625 10.9375H82.8125C85.2989 10.9375 87.6835 11.9252 89.4416 13.6834C91.1998 15.4415 92.1875 17.8261 92.1875 20.3125V28.125Z" fill="#FF8B49"/>
<path d="M60.9375 23.4375H64.0625V20.3125H67.1875V17.1875H64.0625V14.0625H60.9375V17.1875H57.8125V20.3125H60.9375V23.4375Z" fill="#FF8B49"/>
<path d="M82.8125 14.0625H85.9375V17.1875H82.8125V14.0625Z" fill="#FF8B49"/>
<path d="M85.9375 17.1875H89.0625V20.3125H85.9375V17.1875Z" fill="#FF8B49"/>
<path d="M82.8125 20.3125H85.9375V23.4375H82.8125V20.3125Z" fill="#FF8B49"/>
<path d="M79.6875 17.1875H82.8125V20.3125H79.6875V17.1875Z" fill="#FF8B49"/>
<path d="M68.75 14.0625H71.875V17.1875H68.75V14.0625Z" fill="#FF8B49"/>
<path d="M75 14.0625H78.125V17.1875H75V14.0625Z" fill="#FF8B49"/>
</svg>
