<svg width="80" height="74" viewBox="0 0 80 74" fill="none" xmlns="http://www.w3.org/2000/svg">
<path d="M78.5625 42.4219C78.8909 41.7728 79.0622 41.0556 79.0625 40.3281V22.3125C79.0555 19.6857 78.105 17.1488 76.3842 15.1641C74.6634 13.1795 72.2868 11.8791 69.6875 11.5V11.375C69.6842 8.47521 68.5308 5.69514 66.4803 3.64467C64.4299 1.59421 61.6498 0.440808 58.75 0.4375H21.25C18.3502 0.440808 15.5701 1.59421 13.5197 3.64467C11.4692 5.69514 10.3158 8.47521 10.3125 11.375V11.5C7.71319 11.8791 5.33659 13.1795 3.61577 15.1641C1.89495 17.1488 0.944465 19.6857 0.9375 22.3125V40.3281C0.937814 41.0556 1.10909 41.7728 1.4375 42.4219L4.0625 47.6875V52H2.5C2.0856 52 1.68817 52.1646 1.39515 52.4576C1.10212 52.7507 0.9375 53.1481 0.9375 53.5625V62.9375C0.9375 63.3519 1.10212 63.7493 1.39515 64.0424C1.68817 64.3354 2.0856 64.5 2.5 64.5V72.3125C2.5 72.7269 2.66462 73.1243 2.95765 73.4174C3.25067 73.7104 3.6481 73.875 4.0625 73.875H22.8125C23.2269 73.875 23.6243 73.7104 23.9174 73.4174C24.2104 73.1243 24.375 72.7269 24.375 72.3125V64.5C24.7894 64.5 25.1868 64.3354 25.4799 64.0424C25.7729 63.7493 25.9375 63.3519 25.9375 62.9375V53.5625C25.9375 53.1481 25.7729 52.7507 25.4799 52.4576C25.1868 52.1646 24.7894 52 24.375 52H22.8125V50.9531L27.1875 45.125C27.392 44.8554 27.5018 44.5259 27.5 44.1875V40.7344C27.5017 40.0539 27.5909 39.3764 27.7656 38.7188L30.0625 30.125H49.9375L52.2344 38.7188C52.4091 39.3764 52.4983 40.0539 52.5 40.7344V44.1875C52.4982 44.5259 52.608 44.8554 52.8125 45.125L57.1875 50.9531V52H55.625C55.2106 52 54.8132 52.1646 54.5201 52.4576C54.2271 52.7507 54.0625 53.1481 54.0625 53.5625V62.9375C54.0625 63.3519 54.2271 63.7493 54.5201 64.0424C54.8132 64.3354 55.2106 64.5 55.625 64.5V72.3125C55.625 72.7269 55.7896 73.1243 56.0826 73.4174C56.3757 73.7104 56.7731 73.875 57.1875 73.875H75.9375C76.3519 73.875 76.7493 73.7104 77.0424 73.4174C77.3354 73.1243 77.5 72.7269 77.5 72.3125V64.5C77.9144 64.5 78.3118 64.3354 78.6049 64.0424C78.8979 63.7493 79.0625 63.3519 79.0625 62.9375V53.5625C79.0625 53.1481 78.8979 52.7507 78.6049 52.4576C78.3118 52.1646 77.9144 52 77.5 52H75.9375V47.6875L78.5625 42.4219ZM21.25 3.5625H58.75C60.822 3.5625 62.8091 4.3856 64.2743 5.85073C65.7394 7.31586 66.5625 9.303 66.5625 11.375C66.5625 13.447 65.7394 15.4341 64.2743 16.8993C62.8091 18.3644 60.822 19.1875 58.75 19.1875H57.6562L53.3594 16.3281C53.1065 16.1544 52.8068 16.0617 52.5 16.0625H52.2188C51.8988 15.1491 51.3029 14.3577 50.5135 13.7978C49.7242 13.2379 48.7803 12.9372 47.8125 12.9372C46.8447 12.9372 45.9008 13.2379 45.1115 13.7978C44.3221 14.3577 43.7262 15.1491 43.4062 16.0625H36.5938C36.2738 15.1491 35.6779 14.3577 34.8885 13.7978C34.0992 13.2379 33.1553 12.9372 32.1875 12.9372C31.2197 12.9372 30.2758 13.2379 29.4865 13.7978C28.6971 14.3577 28.1012 15.1491 27.7812 16.0625H27.5C27.1932 16.0617 26.8935 16.1544 26.6406 16.3281L22.3438 19.1875H21.25C19.178 19.1875 17.1909 18.3644 15.7257 16.8993C14.2606 15.4341 13.4375 13.447 13.4375 11.375C13.4375 9.303 14.2606 7.31586 15.7257 5.85073C17.1909 4.3856 19.178 3.5625 21.25 3.5625ZM49.375 17.625C49.375 17.934 49.2834 18.2361 49.1117 18.4931C48.94 18.75 48.6959 18.9503 48.4104 19.0686C48.1249 19.1868 47.8108 19.2178 47.5077 19.1575C47.2046 19.0972 46.9262 18.9484 46.7076 18.7299C46.4891 18.5113 46.3403 18.2329 46.28 17.9298C46.2197 17.6267 46.2507 17.3126 46.3689 17.0271C46.4872 16.7415 46.6875 16.4975 46.9444 16.3258C47.2014 16.1541 47.5035 16.0625 47.8125 16.0625C48.2269 16.0625 48.6243 16.2271 48.9174 16.5201C49.2104 16.8132 49.375 17.2106 49.375 17.625ZM33.75 17.625C33.75 17.934 33.6584 18.2361 33.4867 18.4931C33.315 18.75 33.0709 18.9503 32.7854 19.0686C32.4999 19.1868 32.1858 19.2178 31.8827 19.1575C31.5796 19.0972 31.3012 18.9484 31.0826 18.7299C30.8641 18.5113 30.7153 18.2329 30.655 17.9298C30.5947 17.6267 30.6257 17.3126 30.7439 17.0271C30.8622 16.7415 31.0625 16.4975 31.3194 16.3258C31.5764 16.1541 31.8785 16.0625 32.1875 16.0625C32.6019 16.0625 32.9993 16.2271 33.2924 16.5201C33.5854 16.8132 33.75 17.2106 33.75 17.625ZM21.25 70.75H5.625V64.5H21.25V70.75ZM22.8125 61.375H4.0625V55.125H22.8125V61.375ZM27.6562 27.0156L24.75 37.9062C24.5007 38.8283 24.3746 39.7792 24.375 40.7344V43.6719L20 49.5C19.7955 49.7696 19.6857 50.0991 19.6875 50.4375V52H7.1875V47.3125C7.18603 47.0679 7.12716 46.8271 7.01563 46.6094L4.23437 41.0156C4.12277 40.8036 4.06382 40.5678 4.0625 40.3281V22.3125C4.06477 20.5122 4.68764 18.7677 5.82612 17.373C6.9646 15.9784 8.54908 15.0189 10.3125 14.6563V27C10.3126 27.2804 10.3881 27.5557 10.5313 27.7969L14.3281 34.125C14.735 34.8122 15.313 35.3821 16.0059 35.7792C16.6987 36.1763 17.4827 36.3869 18.2812 36.3906H18.3438C19.3698 36.3926 20.3677 36.055 21.1817 35.4303C21.9958 34.8057 22.5802 33.9291 22.8438 32.9375L24.6406 26.2188C24.694 26.0192 24.7863 25.8323 24.9124 25.6687C25.0384 25.5051 25.1957 25.3681 25.375 25.2656C25.7319 25.0606 26.1553 25.0047 26.5531 25.11C26.951 25.2153 27.2913 25.4734 27.5 25.8281C27.605 26.0052 27.673 26.2017 27.6999 26.4059C27.7267 26.61 27.7119 26.8174 27.6562 27.0156ZM49.7812 24.2656C49.3024 25.0926 49.0948 26.0489 49.1875 27H30.8125C30.9052 26.0489 30.6976 25.0926 30.2188 24.2656C29.7519 23.4653 29.0588 22.821 28.2268 22.4135C27.3947 22.006 26.4607 21.8537 25.5422 21.9756C24.6238 22.0975 23.7619 22.4882 23.0649 23.0986C22.3679 23.709 21.8669 24.5119 21.625 25.4062L19.8281 32.125C19.7363 32.4525 19.5401 32.741 19.2694 32.9469C18.9987 33.1527 18.6682 33.2646 18.3281 33.2656H18.3125C18.0493 33.2664 17.7907 33.1973 17.5629 33.0656C17.3351 32.9338 17.1462 32.7441 17.0156 32.5156L13.4375 26.5625V19.0156C14.4531 20.0597 15.6678 20.8894 17.0097 21.4557C18.3516 22.0219 19.7935 22.3133 21.25 22.3125H22.8125C23.1193 22.3133 23.419 22.2206 23.6719 22.0469L27.8125 19.2969C28.1526 20.1928 28.7599 20.9626 29.5521 21.502C30.3443 22.0413 31.2831 22.3242 32.2414 22.3123C33.1996 22.3003 34.1311 21.9942 34.9096 21.4352C35.6881 20.8763 36.276 20.0917 36.5938 19.1875H43.4062C43.724 20.0917 44.3119 20.8763 45.0904 21.4352C45.8689 21.9942 46.8004 22.3003 47.7586 22.3123C48.7169 22.3242 49.6557 22.0413 50.4479 21.502C51.2401 20.9626 51.8474 20.1928 52.1875 19.2969L56.3281 22.0469C56.581 22.2206 56.8807 22.3133 57.1875 22.3125H58.75C60.2065 22.3133 61.6484 22.0219 62.9903 21.4557C64.3322 20.8894 65.5469 20.0597 66.5625 19.0156V26.5625L62.9844 32.5156C62.8538 32.7441 62.6649 32.9338 62.4371 33.0656C62.2093 33.1973 61.9507 33.2664 61.6875 33.2656H61.6719C61.3318 33.2646 61.0013 33.1527 60.7306 32.9469C60.4599 32.741 60.2637 32.4525 60.1719 32.125L58.375 25.4062C58.1331 24.5119 57.6321 23.709 56.9351 23.0986C56.2381 22.4882 55.3762 22.0975 54.4578 21.9756C53.5393 21.8537 52.6053 22.006 51.7733 22.4135C50.9412 22.821 50.2481 23.4653 49.7812 24.2656ZM74.375 70.75H58.75V64.5H74.375V70.75ZM75.9375 61.375H57.1875V55.125H75.9375V61.375ZM75.7656 41.0156L72.9844 46.6094C72.8728 46.8271 72.814 47.0679 72.8125 47.3125V52H60.3125V50.4375C60.3143 50.0991 60.2045 49.7696 60 49.5L55.625 43.6719V40.7344C55.6254 39.7792 55.4993 38.8283 55.25 37.9062L52.3438 27.0156C52.2881 26.8174 52.2733 26.61 52.3001 26.4059C52.327 26.2017 52.395 26.0052 52.5 25.8281C52.5997 25.6513 52.7342 25.4964 52.8953 25.3729C53.0564 25.2494 53.2408 25.1597 53.4375 25.1094C53.8394 25.0024 54.2674 25.0591 54.6276 25.267C54.9879 25.4749 55.251 25.8172 55.3594 26.2188L57.1562 32.9375C57.4333 33.9335 58.0298 34.8109 58.8542 35.4348C59.6785 36.0587 60.6849 36.3945 61.7188 36.3906C62.5173 36.3869 63.3013 36.1763 63.9941 35.7792C64.687 35.3821 65.265 34.8122 65.6719 34.125L69.4688 27.7969C69.6119 27.5557 69.6874 27.2804 69.6875 27V14.6563C71.4509 15.0189 73.0354 15.9784 74.1739 17.373C75.3124 18.7677 75.9352 20.5122 75.9375 22.3125V40.3281C75.9362 40.5678 75.8772 40.8036 75.7656 41.0156Z" fill="#FF8B49"/>
</svg>
