<svg width="88" height="89" viewBox="0 0 88 89" fill="none" xmlns="http://www.w3.org/2000/svg">
<path d="M85.719 53.9062L50.3752 38.4375V27.375C55.2502 24.9375 57.969 19.9688 57.969 14.9062C57.969 7.21875 51.7815 0.9375 44.0002 0.9375C36.4065 0.9375 30.0315 7.125 30.0315 14.9062C30.0315 20.3438 33.219 25.3125 38.094 27.5625V38.25L2.28149 53.9062C0.968993 54.4688 0.125244 55.6875 0.125244 57.0938V68.1562C0.125244 69.5625 0.968993 70.875 2.28149 71.3438L40.5315 88.125C42.6877 89.0625 45.219 89.0625 47.469 88.125L85.719 71.4375C87.0315 70.875 87.8753 69.6562 87.8753 68.25V57.0938C87.8753 55.6875 87.0315 54.4688 85.719 53.9062ZM44.0002 28.875C45.0315 28.875 46.0627 28.7813 47.094 28.5V54C47.094 54.75 46.4377 55.4062 45.6877 55.4062H42.7815C42.0315 55.4062 41.3752 54.75 41.3752 54V28.5938C42.219 28.7812 43.1565 28.875 44.0002 28.875ZM42.7815 58.7812H45.6877C48.3127 58.7812 50.3752 56.625 50.3752 54.0937V49.6875C53.3752 50.9062 55.6252 52.7813 56.2815 55.125C57.4065 58.9688 53.094 64.3125 44.0002 64.3125C35.1877 64.3125 30.5002 59.0625 31.8127 55.0312C32.469 52.6875 34.9065 50.625 38.094 49.5V54C38.094 56.625 40.1565 58.7812 42.7815 58.7812ZM33.3127 14.9062C33.3127 9 38.094 4.21875 44.0002 4.21875C49.9065 4.21875 54.6877 9 54.6877 14.9062C54.6877 20.9062 49.8127 25.5938 44.0002 25.5938C38.094 25.5938 33.3127 20.8125 33.3127 14.9062ZM3.59399 56.9062L38.094 41.9062V46.125C33.219 47.5312 29.6565 50.5313 28.6252 54.1875C26.7502 60.2813 32.7502 67.6875 44.0002 67.6875C55.4377 67.6875 61.1565 60.2812 59.3752 54.2812C58.344 50.7188 54.969 47.7188 50.3752 46.3125V42.1875L84.4065 57C84.594 57.0938 84.594 57.375 84.4065 57.4688L46.1565 73.9688C44.7502 74.5312 43.2502 74.5312 41.844 73.9688L3.59399 57.2812C3.40649 57.2812 3.40649 56.9062 3.59399 56.9062ZM84.4065 68.4375L46.1565 85.125C44.7502 85.6875 43.2502 85.6875 41.844 85.125L3.59399 68.4375C3.50024 68.4375 3.40649 68.3438 3.40649 68.25V60.8438L40.5315 77.0625C42.6877 78 45.219 78 47.469 77.0625L84.594 60.8438V68.25C84.594 68.25 84.5002 68.3438 84.4065 68.4375Z" fill="#FF8B49"/>
</svg>
