<svg width="150" height="31" viewBox="0 0 150 31" fill="none" xmlns="http://www.w3.org/2000/svg">
<g clip-path="url(#clip0)">
<path d="M-1.41504 29.3087V13.6397H2.66043V25.3633H19.3585C20.1092 25.3633 20.829 25.0664 21.3598 24.5379C21.8906 24.0094 22.1887 23.2925 22.1887 22.5451V8.65148C22.1887 7.90405 21.8906 7.18723 21.3598 6.65872C20.829 6.13021 20.1092 5.8333 19.3585 5.8333H-1.41504V1.71875H19.3585C21.205 1.71875 22.9759 2.44916 24.2816 3.7493C25.5873 5.04944 26.3208 6.8128 26.3208 8.65148V22.376C26.3208 24.2147 25.5873 25.9781 24.2816 27.2782C22.9759 28.5783 21.205 29.3087 19.3585 29.3087H-1.41504Z" fill="#FF8B49"/>
<path d="M52.6412 29.3093C46.7261 22.4893 50.1223 26.4912 43.811 19.023L35.3204 29.3093H30.1978V1.69116H34.2449V24.2366L52.6978 1.69116H58.0185L46.4147 15.7821L58.0185 29.2812L52.6412 29.3093Z" fill="#FF8B49"/>
<path d="M61.5 29.3087V13.6397H65.5755V25.3633H82.2736C83.0242 25.3633 83.7441 25.0664 84.2748 24.5379C84.8056 24.0094 85.1038 23.2925 85.1038 22.5451V8.65148C85.1038 7.90405 84.8056 7.18723 84.2748 6.65872C83.7441 6.13021 83.0242 5.8333 82.2736 5.8333H61.5V1.71875H82.2736C84.1201 1.71875 85.891 2.44916 87.1967 3.7493C88.5023 5.04944 89.2359 6.8128 89.2359 8.65148V22.376C89.2359 24.2147 88.5023 25.9781 87.1967 27.2782C85.891 28.5783 84.1201 29.3087 82.2736 29.3087H61.5Z" fill="#FF8B49"/>
<path d="M114.481 29.3087L111.255 21.7842H98.8305L95.6041 29.3087H91.189L97.8965 13.6397H102.34L100.585 17.726H109.5L102.651 1.71875H107.095L118.868 29.3087H114.481Z" fill="#FF8B49"/>
<path d="M127.585 29.3087C125.786 29.2296 124.084 28.467 122.832 27.1776C121.579 25.8882 120.87 24.17 120.85 22.376V13.6397H124.925V22.376C124.925 23.1235 125.223 23.8403 125.754 24.3688C126.285 24.8973 127.005 25.1942 127.755 25.1942H141.51C142.261 25.1942 142.98 24.8973 143.511 24.3688C144.042 23.8403 144.34 23.1235 144.34 22.376V8.65148C144.34 7.90405 144.042 7.18723 143.511 6.65872C142.98 6.13021 142.261 5.8333 141.51 5.8333H127.67C126.92 5.8333 126.2 6.13021 125.669 6.65872C125.138 7.18723 124.84 7.90405 124.84 8.65148H120.85C120.856 6.85332 121.56 5.12729 122.816 3.83495C124.072 2.54262 125.781 1.78426 127.585 1.71875H141.736C143.563 1.74833 145.305 2.49178 146.586 3.78873C147.868 5.08567 148.586 6.83217 148.585 8.65148V22.376C148.586 23.296 148.402 24.2068 148.045 25.0554C147.688 25.9039 147.165 26.6732 146.506 27.3185C145.848 27.9637 145.067 28.472 144.209 28.8137C143.351 29.1554 142.434 29.3237 141.51 29.3087H127.585Z" fill="#FF8B49"/>
</g>
<defs>
<clipPath id="clip0">
<rect width="150" height="31" fill="white"/>
</clipPath>
</defs>
</svg>
